<svg 
 xmlns="http://www.w3.org/2000/svg"
 xmlns:xlink="http://www.w3.org/1999/xlink"
 width="182.5px" height="18px">
<path fill-rule="evenodd"  fill="rgb(255, 255, 255)"
 d="M177.223,13.743 L175.277,13.743 L175.277,4.617 L177.223,4.617 C180.377,4.617 182.215,6.375 182.215,9.181 C182.215,11.985 180.393,13.743 177.223,13.743 ZM177.158,5.113 L175.828,5.113 L175.828,13.247 L177.158,13.247 C180.177,13.247 181.640,11.569 181.640,9.181 C181.640,6.791 180.177,5.113 177.158,5.113 ZM162.661,5.348 L163.049,4.959 L170.371,12.280 L169.982,12.669 L162.661,5.348 ZM152.443,4.617 L157.773,4.617 L157.773,5.099 L152.994,5.099 L152.994,9.985 L157.276,9.985 L157.276,10.468 L152.994,10.468 L152.994,13.260 L157.960,13.260 L157.960,13.743 L152.443,13.743 L152.443,4.617 ZM145.681,13.743 L143.774,11.139 C143.439,11.220 143.049,11.260 142.634,11.260 L141.344,11.260 L141.344,13.743 L140.794,13.743 L140.794,4.617 L142.634,4.617 C145.104,4.617 146.271,6.093 146.271,7.945 C146.271,9.287 145.639,10.442 144.311,10.965 L146.337,13.743 L145.681,13.743 ZM145.707,7.945 C145.707,6.442 144.889,5.099 142.579,5.099 L141.344,5.099 L141.344,10.777 L142.579,10.777 C144.889,10.777 145.707,9.448 145.707,7.945 ZM132.312,13.743 L131.763,13.743 L131.763,5.099 L128.863,5.099 L128.863,4.617 L135.212,4.617 L135.212,5.099 L132.312,5.099 L132.312,13.743 ZM117.303,5.348 L117.692,4.959 L125.013,12.280 L124.623,12.669 L117.303,5.348 ZM108.418,13.850 C105.844,13.850 103.749,11.958 103.749,9.181 C103.749,6.402 105.844,4.509 108.418,4.509 C110.998,4.509 113.090,6.402 113.090,9.181 C113.090,11.958 110.998,13.850 108.418,13.850 ZM108.418,5.007 C106.071,5.007 104.314,6.791 104.314,9.181 C104.314,11.569 106.071,13.354 108.418,13.354 C110.769,13.354 112.526,11.569 112.526,9.181 C112.526,6.791 110.769,5.007 108.418,5.007 ZM97.242,4.617 L97.790,4.617 L97.790,13.743 L97.242,13.743 L97.242,4.617 ZM88.703,13.743 L88.155,13.743 L88.155,5.099 L85.255,5.099 L85.255,4.617 L91.605,4.617 L91.605,5.099 L88.703,5.099 L88.703,13.743 ZM75.619,13.850 C73.042,13.850 70.947,11.958 70.947,9.181 C70.947,6.402 73.042,4.509 75.619,4.509 C78.196,4.509 80.289,6.402 80.289,9.181 C80.289,11.958 78.196,13.850 75.619,13.850 ZM75.619,5.007 C73.270,5.007 71.512,6.791 71.512,9.181 C71.512,11.569 73.270,13.354 75.619,13.354 C77.967,13.354 79.726,11.569 79.726,9.181 C79.726,6.791 77.967,5.007 75.619,5.007 ZM64.520,6.496 C64.520,6.174 64.547,5.704 64.547,5.704 C64.547,5.704 64.292,6.147 64.050,6.455 L60.842,10.670 L60.695,10.670 L57.528,6.455 C57.299,6.160 57.031,5.704 57.031,5.704 C57.031,5.704 57.058,6.174 57.058,6.496 L57.058,13.743 L56.536,13.743 L56.536,4.509 L56.668,4.509 L60.788,9.932 L64.908,4.509 L65.045,4.509 L65.045,13.743 L64.520,13.743 L64.520,6.496 Z"/>
<path fill-rule="evenodd"  fill="rgb(7, 7, 7)"
 d="M177.223,13.743 L175.277,13.743 L175.277,4.617 L177.223,4.617 C180.377,4.617 182.215,6.375 182.215,9.181 C182.215,11.985 180.393,13.743 177.223,13.743 ZM177.158,5.113 L175.828,5.113 L175.828,13.247 L177.158,13.247 C180.177,13.247 181.640,11.569 181.640,9.181 C181.640,6.791 180.177,5.113 177.158,5.113 ZM162.661,5.348 L163.049,4.959 L170.371,12.280 L169.982,12.669 L162.661,5.348 ZM152.443,4.617 L157.773,4.617 L157.773,5.099 L152.994,5.099 L152.994,9.985 L157.276,9.985 L157.276,10.468 L152.994,10.468 L152.994,13.260 L157.960,13.260 L157.960,13.743 L152.443,13.743 L152.443,4.617 ZM145.681,13.743 L143.774,11.139 C143.439,11.220 143.049,11.260 142.634,11.260 L141.344,11.260 L141.344,13.743 L140.794,13.743 L140.794,4.617 L142.634,4.617 C145.104,4.617 146.271,6.093 146.271,7.945 C146.271,9.287 145.639,10.442 144.311,10.965 L146.337,13.743 L145.681,13.743 ZM145.707,7.945 C145.707,6.442 144.889,5.099 142.579,5.099 L141.344,5.099 L141.344,10.777 L142.579,10.777 C144.889,10.777 145.707,9.448 145.707,7.945 ZM132.312,13.743 L131.763,13.743 L131.763,5.099 L128.863,5.099 L128.863,4.617 L135.212,4.617 L135.212,5.099 L132.312,5.099 L132.312,13.743 ZM117.303,5.348 L117.692,4.959 L125.013,12.280 L124.623,12.669 L117.303,5.348 ZM108.418,13.850 C105.844,13.850 103.749,11.958 103.749,9.181 C103.749,6.402 105.844,4.509 108.418,4.509 C110.998,4.509 113.090,6.402 113.090,9.181 C113.090,11.958 110.998,13.850 108.418,13.850 ZM108.418,5.007 C106.071,5.007 104.314,6.791 104.314,9.181 C104.314,11.569 106.071,13.354 108.418,13.354 C110.769,13.354 112.526,11.569 112.526,9.181 C112.526,6.791 110.769,5.007 108.418,5.007 ZM97.242,4.617 L97.790,4.617 L97.790,13.743 L97.242,13.743 L97.242,4.617 ZM88.703,13.743 L88.155,13.743 L88.155,5.099 L85.255,5.099 L85.255,4.617 L91.605,4.617 L91.605,5.099 L88.703,5.099 L88.703,13.743 ZM75.619,13.850 C73.042,13.850 70.947,11.958 70.947,9.181 C70.947,6.402 73.042,4.509 75.619,4.509 C78.196,4.509 80.289,6.402 80.289,9.181 C80.289,11.958 78.196,13.850 75.619,13.850 ZM75.619,5.007 C73.270,5.007 71.512,6.791 71.512,9.181 C71.512,11.569 73.270,13.354 75.619,13.354 C77.967,13.354 79.726,11.569 79.726,9.181 C79.726,6.791 77.967,5.007 75.619,5.007 ZM64.520,6.496 C64.520,6.174 64.547,5.704 64.547,5.704 C64.547,5.704 64.292,6.147 64.050,6.455 L60.842,10.670 L60.695,10.670 L57.528,6.455 C57.299,6.160 57.031,5.704 57.031,5.704 C57.031,5.704 57.058,6.174 57.058,6.496 L57.058,13.743 L56.536,13.743 L56.536,4.509 L56.668,4.509 L60.788,9.932 L64.908,4.509 L65.045,4.509 L65.045,13.743 L64.520,13.743 L64.520,6.496 Z"/>
<path fill-rule="evenodd"  fill="rgb(7, 7, 7)"
 d="M177.223,13.743 L175.277,13.743 L175.277,4.617 L177.223,4.617 C180.377,4.617 182.215,6.375 182.215,9.181 C182.215,11.985 180.393,13.743 177.223,13.743 ZM177.158,5.113 L175.828,5.113 L175.828,13.247 L177.158,13.247 C180.177,13.247 181.640,11.569 181.640,9.181 C181.640,6.791 180.177,5.113 177.158,5.113 ZM162.661,5.348 L163.049,4.959 L170.371,12.280 L169.982,12.669 L162.661,5.348 ZM152.443,4.617 L157.773,4.617 L157.773,5.099 L152.994,5.099 L152.994,9.985 L157.276,9.985 L157.276,10.468 L152.994,10.468 L152.994,13.260 L157.960,13.260 L157.960,13.743 L152.443,13.743 L152.443,4.617 ZM145.681,13.743 L143.774,11.139 C143.439,11.220 143.049,11.260 142.634,11.260 L141.344,11.260 L141.344,13.743 L140.794,13.743 L140.794,4.617 L142.634,4.617 C145.104,4.617 146.271,6.093 146.271,7.945 C146.271,9.287 145.639,10.442 144.311,10.965 L146.337,13.743 L145.681,13.743 ZM145.707,7.945 C145.707,6.442 144.889,5.099 142.579,5.099 L141.344,5.099 L141.344,10.777 L142.579,10.777 C144.889,10.777 145.707,9.448 145.707,7.945 ZM132.312,13.743 L131.763,13.743 L131.763,5.099 L128.863,5.099 L128.863,4.617 L135.212,4.617 L135.212,5.099 L132.312,5.099 L132.312,13.743 ZM117.303,5.348 L117.692,4.959 L125.013,12.280 L124.623,12.669 L117.303,5.348 ZM108.418,13.850 C105.844,13.850 103.749,11.958 103.749,9.181 C103.749,6.402 105.844,4.509 108.418,4.509 C110.998,4.509 113.090,6.402 113.090,9.181 C113.090,11.958 110.998,13.850 108.418,13.850 ZM108.418,5.007 C106.071,5.007 104.314,6.791 104.314,9.181 C104.314,11.569 106.071,13.354 108.418,13.354 C110.769,13.354 112.526,11.569 112.526,9.181 C112.526,6.791 110.769,5.007 108.418,5.007 ZM97.242,4.617 L97.790,4.617 L97.790,13.743 L97.242,13.743 L97.242,4.617 ZM88.703,13.743 L88.155,13.743 L88.155,5.099 L85.255,5.099 L85.255,4.617 L91.605,4.617 L91.605,5.099 L88.703,5.099 L88.703,13.743 ZM75.619,13.850 C73.042,13.850 70.947,11.958 70.947,9.181 C70.947,6.402 73.042,4.509 75.619,4.509 C78.196,4.509 80.289,6.402 80.289,9.181 C80.289,11.958 78.196,13.850 75.619,13.850 ZM75.619,5.007 C73.270,5.007 71.512,6.791 71.512,9.181 C71.512,11.569 73.270,13.354 75.619,13.354 C77.967,13.354 79.726,11.569 79.726,9.181 C79.726,6.791 77.967,5.007 75.619,5.007 ZM64.520,6.496 C64.520,6.174 64.547,5.704 64.547,5.704 C64.547,5.704 64.292,6.147 64.050,6.455 L60.842,10.670 L60.695,10.670 L57.528,6.455 C57.299,6.160 57.031,5.704 57.031,5.704 C57.031,5.704 57.058,6.174 57.058,6.496 L57.058,13.743 L56.536,13.743 L56.536,4.509 L56.668,4.509 L60.788,9.932 L64.908,4.509 L65.045,4.509 L65.045,13.743 L64.520,13.743 L64.520,6.496 Z"/>
<path fill-rule="evenodd"  fill="rgb(7, 7, 7)"
 d="M177.223,13.743 L175.277,13.743 L175.277,4.617 L177.223,4.617 C180.377,4.617 182.215,6.375 182.215,9.181 C182.215,11.985 180.393,13.743 177.223,13.743 ZM177.158,5.113 L175.828,5.113 L175.828,13.247 L177.158,13.247 C180.177,13.247 181.640,11.569 181.640,9.181 C181.640,6.791 180.177,5.113 177.158,5.113 ZM162.661,5.348 L163.049,4.959 L170.371,12.280 L169.982,12.669 L162.661,5.348 ZM152.443,4.617 L157.773,4.617 L157.773,5.099 L152.994,5.099 L152.994,9.985 L157.276,9.985 L157.276,10.468 L152.994,10.468 L152.994,13.260 L157.960,13.260 L157.960,13.743 L152.443,13.743 L152.443,4.617 ZM145.681,13.743 L143.774,11.139 C143.439,11.220 143.049,11.260 142.634,11.260 L141.344,11.260 L141.344,13.743 L140.794,13.743 L140.794,4.617 L142.634,4.617 C145.104,4.617 146.271,6.093 146.271,7.945 C146.271,9.287 145.639,10.442 144.311,10.965 L146.337,13.743 L145.681,13.743 ZM145.707,7.945 C145.707,6.442 144.889,5.099 142.579,5.099 L141.344,5.099 L141.344,10.777 L142.579,10.777 C144.889,10.777 145.707,9.448 145.707,7.945 ZM132.312,13.743 L131.763,13.743 L131.763,5.099 L128.863,5.099 L128.863,4.617 L135.212,4.617 L135.212,5.099 L132.312,5.099 L132.312,13.743 ZM117.303,5.348 L117.692,4.959 L125.013,12.280 L124.623,12.669 L117.303,5.348 ZM108.418,13.850 C105.844,13.850 103.749,11.958 103.749,9.181 C103.749,6.402 105.844,4.509 108.418,4.509 C110.998,4.509 113.090,6.402 113.090,9.181 C113.090,11.958 110.998,13.850 108.418,13.850 ZM108.418,5.007 C106.071,5.007 104.314,6.791 104.314,9.181 C104.314,11.569 106.071,13.354 108.418,13.354 C110.769,13.354 112.526,11.569 112.526,9.181 C112.526,6.791 110.769,5.007 108.418,5.007 ZM97.242,4.617 L97.790,4.617 L97.790,13.743 L97.242,13.743 L97.242,4.617 ZM88.703,13.743 L88.155,13.743 L88.155,5.099 L85.255,5.099 L85.255,4.617 L91.605,4.617 L91.605,5.099 L88.703,5.099 L88.703,13.743 ZM75.619,13.850 C73.042,13.850 70.947,11.958 70.947,9.181 C70.947,6.402 73.042,4.509 75.619,4.509 C78.196,4.509 80.289,6.402 80.289,9.181 C80.289,11.958 78.196,13.850 75.619,13.850 ZM75.619,5.007 C73.270,5.007 71.512,6.791 71.512,9.181 C71.512,11.569 73.270,13.354 75.619,13.354 C77.967,13.354 79.726,11.569 79.726,9.181 C79.726,6.791 77.967,5.007 75.619,5.007 ZM64.520,6.496 C64.520,6.174 64.547,5.704 64.547,5.704 C64.547,5.704 64.292,6.147 64.050,6.455 L60.842,10.670 L60.695,10.670 L57.528,6.455 C57.299,6.160 57.031,5.704 57.031,5.704 C57.031,5.704 57.058,6.174 57.058,6.496 L57.058,13.743 L56.536,13.743 L56.536,4.509 L56.668,4.509 L60.788,9.932 L64.908,4.509 L65.045,4.509 L65.045,13.743 L64.520,13.743 L64.520,6.496 Z"/>
<path fill-rule="evenodd"  fill="rgb(7, 7, 7)"
 d="M177.223,13.743 L175.277,13.743 L175.277,4.617 L177.223,4.617 C180.377,4.617 182.215,6.375 182.215,9.181 C182.215,11.985 180.393,13.743 177.223,13.743 ZM177.158,5.113 L175.828,5.113 L175.828,13.247 L177.158,13.247 C180.177,13.247 181.640,11.569 181.640,9.181 C181.640,6.791 180.177,5.113 177.158,5.113 ZM162.661,5.348 L163.049,4.959 L170.371,12.280 L169.982,12.669 L162.661,5.348 ZM152.443,4.617 L157.773,4.617 L157.773,5.099 L152.994,5.099 L152.994,9.985 L157.276,9.985 L157.276,10.468 L152.994,10.468 L152.994,13.260 L157.960,13.260 L157.960,13.743 L152.443,13.743 L152.443,4.617 ZM145.681,13.743 L143.774,11.139 C143.439,11.220 143.049,11.260 142.634,11.260 L141.344,11.260 L141.344,13.743 L140.794,13.743 L140.794,4.617 L142.634,4.617 C145.104,4.617 146.271,6.093 146.271,7.945 C146.271,9.287 145.639,10.442 144.311,10.965 L146.337,13.743 L145.681,13.743 ZM145.707,7.945 C145.707,6.442 144.889,5.099 142.579,5.099 L141.344,5.099 L141.344,10.777 L142.579,10.777 C144.889,10.777 145.707,9.448 145.707,7.945 ZM132.312,13.743 L131.763,13.743 L131.763,5.099 L128.863,5.099 L128.863,4.617 L135.212,4.617 L135.212,5.099 L132.312,5.099 L132.312,13.743 ZM117.303,5.348 L117.692,4.959 L125.013,12.280 L124.623,12.669 L117.303,5.348 ZM108.418,13.850 C105.844,13.850 103.749,11.958 103.749,9.181 C103.749,6.402 105.844,4.509 108.418,4.509 C110.998,4.509 113.090,6.402 113.090,9.181 C113.090,11.958 110.998,13.850 108.418,13.850 ZM108.418,5.007 C106.071,5.007 104.314,6.791 104.314,9.181 C104.314,11.569 106.071,13.354 108.418,13.354 C110.769,13.354 112.526,11.569 112.526,9.181 C112.526,6.791 110.769,5.007 108.418,5.007 ZM97.242,4.617 L97.790,4.617 L97.790,13.743 L97.242,13.743 L97.242,4.617 ZM88.703,13.743 L88.155,13.743 L88.155,5.099 L85.255,5.099 L85.255,4.617 L91.605,4.617 L91.605,5.099 L88.703,5.099 L88.703,13.743 ZM75.619,13.850 C73.042,13.850 70.947,11.958 70.947,9.181 C70.947,6.402 73.042,4.509 75.619,4.509 C78.196,4.509 80.289,6.402 80.289,9.181 C80.289,11.958 78.196,13.850 75.619,13.850 ZM75.619,5.007 C73.270,5.007 71.512,6.791 71.512,9.181 C71.512,11.569 73.270,13.354 75.619,13.354 C77.967,13.354 79.726,11.569 79.726,9.181 C79.726,6.791 77.967,5.007 75.619,5.007 ZM64.520,6.496 C64.520,6.174 64.547,5.704 64.547,5.704 C64.547,5.704 64.292,6.147 64.050,6.455 L60.842,10.670 L60.695,10.670 L57.528,6.455 C57.299,6.160 57.031,5.704 57.031,5.704 C57.031,5.704 57.058,6.174 57.058,6.496 L57.058,13.743 L56.536,13.743 L56.536,4.509 L56.668,4.509 L60.788,9.932 L64.908,4.509 L65.045,4.509 L65.045,13.743 L64.520,13.743 L64.520,6.496 Z"/>
<path fill-rule="evenodd"  stroke-width="1px" stroke="rgb(7, 7, 7)" fill="rgb(7, 7, 7)"
 d="M35.981,14.275 L35.981,4.258 L36.585,4.258 L36.585,14.275 L35.981,14.275 ZM21.216,5.061 L21.644,4.634 L29.678,12.669 L29.251,13.095 L21.216,5.061 ZM10.436,5.061 L10.862,4.634 L18.897,12.669 L18.471,13.095 L10.436,5.061 ZM4.271,4.258 L4.874,4.258 L4.874,14.275 L4.271,14.275 L4.271,4.258 Z"/>
<path fill-rule="evenodd"  stroke-width="1px" stroke="rgb(7, 7, 7)" fill="rgb(7, 7, 7)"
 d="M35.981,14.275 L35.981,4.258 L36.585,4.258 L36.585,14.275 L35.981,14.275 ZM21.216,5.061 L21.644,4.634 L29.678,12.669 L29.251,13.095 L21.216,5.061 ZM10.436,5.061 L10.862,4.634 L18.897,12.669 L18.471,13.095 L10.436,5.061 ZM4.271,4.258 L4.874,4.258 L4.874,14.275 L4.271,14.275 L4.271,4.258 Z"/>
<path fill-rule="evenodd"  stroke-width="1px" stroke="rgb(7, 7, 7)" fill="rgb(7, 7, 7)"
 d="M35.981,14.275 L35.981,4.258 L36.585,4.258 L36.585,14.275 L35.981,14.275 ZM21.216,5.061 L21.644,4.634 L29.678,12.669 L29.251,13.095 L21.216,5.061 ZM10.436,5.061 L10.862,4.634 L18.897,12.669 L18.471,13.095 L10.436,5.061 ZM4.271,4.258 L4.874,4.258 L4.874,14.275 L4.271,14.275 L4.271,4.258 Z"/>
</svg>